<svg id="Capa_1" x="0" y="0" viewBox="0 0 500 208" xmlns="http://www.w3.org/2000/svg">
<path d="M217.746 0.254978C218.578 1.46798 219.485 1.97397 220.558 2.34897C224.049 3.56697 227.252 4.12798 231.339 4.62998C237.586 5.39798 244.314 6.66698 250.464 8.00498C258.331 9.71598 266.052 12.032 273.714 14.505C280.655 16.745 287.511 19.265 294.245 22.067C300.651 24.733 306.938 27.729 313.12 30.879C318.386 33.562 323.548 36.439 328.62 39.473C333.826 42.586 338.939 45.873 343.932 49.317C349.649 53.26 355.175 57.43 360.682 61.661C363.875 64.114 367.095 66.566 370.12 69.223C372.161 71.017 371.965 71.302 374.62 73.098C376.655 74.474 379.141 74.278 381.432 73.192C383.724 72.106 387.526 69.848 387.526 69.848C387.526 69.848 382.962 66.436 379.37 63.942C379.436 63.952 379.528 63.996 379.589 64.004C381.872 64.319 384.81 63.468 387.089 63.129C388.473 62.923 389.911 62.864 391.308 62.941C394.347 63.11 397.323 63.818 400.308 64.41C415.018 67.328 429.721 70.47 444.12 74.66C454.494 77.679 464.762 81.142 474.714 85.348C478.024 86.747 481.378 88.157 484.339 90.192C487.069 92.069 489.62 94.286 491.683 96.88C493.63 99.328 494.974 102.238 496.308 105.068C497.552 107.709 498.856 110.363 499.433 113.224C500.331 117.678 499.898 122.306 499.871 126.849C499.841 131.744 499.695 136.665 499.215 141.537C498.723 146.532 497.996 150.866 497.777 155.881C497.731 156.93 497.749 158.643 498.183 159.6C498.51 160.32 498.579 160.469 498.808 161.225C499.014 161.907 498.682 162.664 498.402 163.319C497.731 164.887 496.671 166.301 495.464 167.507C494.861 168.11 493.99 168.39 493.37 168.976C492.467 169.831 491.942 171.039 491.058 171.914C489.18 173.77 487.12 175.509 484.777 176.726C481.463 178.447 477.732 179.28 474.089 180.101C470.166 180.985 466.128 181.427 462.12 181.757C459.334 181.987 456.968 182.286 453.745 181.976C451.44 181.933 451.806 181.953 449.714 181.914C451.422 177.018 452.37 171.737 452.37 166.258C452.37 140.052 431.108 118.82 404.901 118.82C378.695 118.82 357.463 140.051 357.463 166.258C357.463 171.085 358.186 175.745 359.525 180.133C358.026 180.107 358.316 180.129 356.713 180.102C252.582 178.834 198.816 177.089 119.869 175.914C118.482 175.893 117.143 175.848 115.775 175.82C116.586 172.344 117.025 168.73 117.025 165.008C117.025 138.802 95.794 117.57 69.587 117.57C43.38 117.57 22.118 138.801 22.118 165.008C22.118 166.646 22.206 168.257 22.368 169.852C20.938 169.606 19.559 169.167 18.243 168.571C15.49 167.323 13.018 165.456 10.681 163.54C8.16 161.473 5.87699 159.126 3.77499 156.634C2.44999 155.064 0.755982 153.584 0.212982 151.603C-0.473018 149.102 0.703982 149.672 0.837982 143.822C1.04998 134.6 0.828982 125.368 1.46298 116.166C1.71398 112.518 1.78698 108.364 2.71298 105.26C3.03798 104.17 4.08001 103.104 4.80701 102.229C5.47601 101.423 6.791 101.271 6.901 100.229C7.32 96.266 7.36401 92.126 7.55701 88.073C7.68101 85.458 7.532 82.835 7.745 80.229C7.771 80.404 7.817 80.589 7.87 80.76C8.135 81.614 9.108 82.063 9.526 82.854C9.97 83.694 10.211 84.636 10.37 85.573C10.68 87.4 10.671 89.285 10.589 91.135C10.503 93.07 9.98899 94.954 9.83899 96.885C9.74399 98.104 9.248 99.455 9.745 100.573C10.118 101.411 10.991 102.004 11.839 102.354C13.491 103.036 15.41 102.983 17.183 102.76C19.013 102.531 20.85 101.927 22.433 100.979C25.55 99.112 27.848 96.125 30.402 93.541C34.591 89.303 38.837 85.073 42.433 80.322C43.352 79.109 44.579 77.946 44.839 76.447C45.065 75.144 44.791 73.651 44.027 72.572C42.557 70.5 39.818 69.701 37.527 68.603C34.817 67.304 31.96 66.197 29.027 65.541C26.904 65.066 24.703 64.931 22.527 64.916C20.424 64.902 18.268 64.871 16.246 65.447C14.398 65.973 12.482 66.715 11.121 68.072C10.94 68.252 10.769 68.459 10.621 68.666C11.965 65.474 13.979 62.663 15.965 59.822C16.349 59.681 20.724 58.058 23.153 57.478C24.907 57.059 28.184 57.072 28.184 57.072C28.184 57.072 32.424 50.926 34.778 48.041C37.639 44.534 40.662 41.168 43.903 38.01C47.434 34.57 51.177 31.31 55.122 28.354C59.022 25.431 67.372 20.385 67.372 20.385L60.497 16.979C61.52 15.848 60.113 12.915 61.185 11.604C61.998 10.609 63.357 10.609 65.06 10.573C69.67 10.474 73.99 10.225 78.591 9.91698C84.488 9.52198 90.326 8.59497 96.185 7.82297C101.994 7.05697 107.767 5.93098 113.591 5.29198C125.639 3.96998 137.735 3.15497 149.841 2.57297C163.102 1.93597 176.415 2.14898 189.685 1.72898C194.647 1.57198 199.602 1.36398 204.56 1.10398C208.962 0.868977 213.338 0.150978 217.746 0.254978ZM183.183 12.099C183.183 12.099 173.472 12.113 168.621 12.318C161.624 12.613 154.628 13.167 147.652 13.787C140.513 14.422 133.373 15.091 126.277 16.099C121.114 16.833 115.741 17.749 110.871 18.818C109.704 19.074 108.072 19.812 108.027 21.006C107.752 28.352 107.707 35.344 107.621 42.506C107.529 50.155 107.527 65.444 107.527 65.444C107.527 65.444 133.444 65.651 146.402 65.882C160.481 66.133 188.621 66.913 188.621 66.913L183.183 12.099ZM206.027 12.224C206.027 12.224 209.361 30.72 211.465 39.88C213.68 49.525 219.027 68.599 219.027 68.599C219.027 68.599 234.533 69.262 242.277 69.849C256.626 70.936 270.948 72.411 285.246 74.037C290.636 74.65 300.558 75.412 300.558 75.412C300.558 75.412 300.508 71.48 301.058 69.631C301.611 67.774 303.777 64.506 303.777 64.506L295.527 31.287C295.527 31.287 286.244 27.252 281.465 25.631C274.049 23.116 266.459 21.16 258.84 19.35C251.149 17.522 243.377 15.897 235.559 14.725C229.447 13.809 223.282 13.339 217.121 12.85C213.424 12.555 206.027 12.224 206.027 12.224ZM95.465 22.787C95.465 22.787 88.673 24.432 85.403 25.631C80.824 27.309 76.299 29.23 72.091 31.693C66.827 34.775 61.895 38.483 57.31 42.505C54.19 45.242 50.918 47.986 48.716 51.505C46.769 54.617 47.765 54.477 50.622 55.817C56.568 58.608 63.19 59.684 69.591 61.161C75.713 62.574 88.122 64.505 88.122 64.505L95.465 22.787ZM300.34 33.38C302.561 42.466 305.756 52.268 307.996 61.349C307.996 61.349 311.452 60.554 313.121 60.724C314.554 60.87 317.179 61.728 319.09 62.724C320.757 63.593 322.762 64.875 324.215 66.068C325.781 67.354 327.578 69.647 328.309 71.537C329.371 74.28 328.309 79.475 328.309 79.475C328.309 79.475 332.459 79.851 335.121 80.131C337.769 80.41 343.09 80.756 343.09 80.756C343.09 80.756 340.506 70.017 338.684 64.818C337.452 61.303 334.278 54.537 334.278 54.537C334.278 54.537 330.384 50.743 328.216 49.099C324.06 45.951 319.535 43.29 314.997 40.724C310.237 38.033 300.34 33.38 300.34 33.38ZM435.715 83.443C434.973 83.424 434.253 83.509 433.621 83.881C433.001 84.246 432.533 85.07 432.59 85.787C432.689 87.027 434.028 87.84 434.902 88.725C437.802 91.658 441.298 93.91 444.527 96.475C449.046 100.065 453.374 103.924 458.152 107.163C460.225 108.568 462.321 109.998 464.652 110.913C466.719 111.724 468.955 112.061 471.152 112.382C475.24 112.978 479.365 113.282 483.496 113.226C484.97 113.206 486.661 113.614 487.902 112.82C488.72 112.297 488.753 111.037 489.371 110.289C490.316 109.143 491.546 108.226 492.746 107.351C493.404 106.871 494.699 106.903 494.84 106.101C495.26 103.704 491.885 102.215 490.215 100.445C488.654 98.791 487.304 96.676 485.184 95.851C484.207 95.471 483.079 96.092 482.059 95.851C479.474 95.241 477.377 93.329 474.934 92.289C471.864 90.982 468.665 89.959 465.497 88.914C462.307 87.862 459.111 86.743 455.841 85.976C452.945 85.297 450.012 84.876 447.06 84.507C444.556 84.195 442.019 83.987 439.497 83.882C438.274 83.83 436.951 83.475 435.715 83.443ZM69.59 123.505C92.507 123.505 111.09 142.088 111.09 165.005C111.09 187.922 92.507 206.505 69.59 206.505C46.673 206.505 28.09 187.922 28.09 165.005C28.09 142.088 46.672 123.505 69.59 123.505ZM404.902 124.755C427.819 124.755 446.402 143.338 446.402 166.255C446.402 189.172 427.819 207.755 404.902 207.755C381.985 207.755 363.433 189.172 363.433 166.255C363.433 143.338 381.985 124.755 404.902 124.755ZM69.59 134.818C52.922 134.818 39.402 148.337 39.402 165.006C39.402 181.674 52.921 195.194 69.59 195.194C86.258 195.194 99.746 181.674 99.746 165.006C99.746 148.337 86.258 134.818 69.59 134.818ZM404.902 136.068C388.234 136.068 374.746 149.587 374.746 166.256C374.746 182.924 388.234 196.444 404.902 196.444C421.57 196.444 435.09 182.924 435.09 166.256C435.09 149.587 421.57 136.068 404.902 136.068Z" />
</svg>
